<?xml version="1.0" encoding="utf-8"?>
<!-- Generator: Adobe Illustrator 21.1.0, SVG Export Plug-In . SVG Version: 6.00 Build 0)  -->
<svg version="1.1" id="圖層_1" xmlns="http://www.w3.org/2000/svg" xmlns:xlink="http://www.w3.org/1999/xlink" x="0px" y="0px"
	 viewBox="0 0 50 50" style="enable-background:new 0 0 50 50;" xml:space="preserve">
<style type="text/css">
	.st0{fill:#F8C44F;}
	.st1{fill:#FFFFFF;}
	.st2{fill:#282D33;}
	.st3{fill:#34CA9D;}
</style>
<g>
	<polygon class="st0" points="48.3,26.8 2,26.8 6.6,21.1 43.7,21.1 	"/>
	<g>
		<rect x="2.7" y="27.8" class="st1" width="44.9" height="16.8"/>
		<path class="st2" d="M48.5,45.6H1.8V26.9h46.7V45.6z M3.6,43.7h43.1v-15H3.6V43.7z"/>
	</g>
	<g>
		<rect x="12.3" y="12.5" class="st1" width="25.7" height="29.3"/>
		<path class="st2" d="M38.9,42.7H11.4V11.6h27.5V42.7z M13.2,40.8h23.9V13.4H13.2V40.8z"/>
	</g>
	<g>
		<rect x="2.5" y="41.8" class="st1" width="45.4" height="3.1"/>
		<path class="st2" d="M48.7,45.8H1.5v-4.9h47.2V45.8z M3.4,43.9h43.5v-1.2H3.4V43.9z"/>
	</g>
	<g>
		<g>
			<g>
				<rect x="4.9" y="30.8" class="st2" width="1.8" height="2.5"/>
			</g>
			<g>
				<rect x="8.1" y="30.8" class="st2" width="1.8" height="2.5"/>
			</g>
		</g>
		<g>
			<g>
				<rect x="4.9" y="34.5" class="st2" width="1.8" height="2.5"/>
			</g>
			<g>
				<rect x="8.1" y="34.5" class="st2" width="1.8" height="2.5"/>
			</g>
		</g>
		<g>
			<g>
				<rect x="40.4" y="30.8" class="st2" width="1.8" height="2.5"/>
			</g>
			<g>
				<rect x="43.5" y="30.8" class="st2" width="1.8" height="2.5"/>
			</g>
		</g>
		<g>
			<g>
				<rect x="40.4" y="34.5" class="st2" width="1.8" height="2.5"/>
			</g>
			<g>
				<rect x="43.5" y="34.5" class="st2" width="1.8" height="2.5"/>
			</g>
		</g>
	</g>
	<g>
		<g>
			<rect x="15.5" y="25.5" class="st2" width="1.8" height="2.5"/>
		</g>
		<g>
			<rect x="19" y="25.5" class="st2" width="1.8" height="2.5"/>
		</g>
		<g>
			<rect x="22.5" y="25.5" class="st2" width="1.8" height="2.5"/>
		</g>
		<g>
			<rect x="26" y="25.5" class="st2" width="1.8" height="2.5"/>
		</g>
		<g>
			<rect x="29.4" y="25.5" class="st2" width="1.8" height="2.5"/>
		</g>
		<g>
			<rect x="32.9" y="25.5" class="st2" width="1.8" height="2.5"/>
		</g>
	</g>
	<g>
		<g>
			<rect x="15.5" y="30" class="st2" width="1.8" height="2.5"/>
		</g>
		<g>
			<rect x="19" y="30" class="st2" width="1.8" height="2.5"/>
		</g>
		<g>
			<rect x="22.5" y="30" class="st2" width="1.8" height="2.5"/>
		</g>
		<g>
			<rect x="26" y="30" class="st2" width="1.8" height="2.5"/>
		</g>
		<g>
			<rect x="29.4" y="30" class="st2" width="1.8" height="2.5"/>
		</g>
		<g>
			<rect x="32.9" y="30" class="st2" width="1.8" height="2.5"/>
		</g>
	</g>
	<g>
		<g>
			<rect x="15.5" y="16.8" class="st2" width="1.8" height="2.5"/>
		</g>
		<g>
			<rect x="19" y="16.8" class="st2" width="1.8" height="2.5"/>
		</g>
		<g>
			<rect x="22.5" y="16.8" class="st2" width="1.8" height="2.5"/>
		</g>
		<g>
			<rect x="26" y="16.8" class="st2" width="1.8" height="2.5"/>
		</g>
		<g>
			<rect x="29.4" y="16.8" class="st2" width="1.8" height="2.5"/>
		</g>
		<g>
			<rect x="32.9" y="16.8" class="st2" width="1.8" height="2.5"/>
		</g>
	</g>
	<g>
		<g>
			<rect x="15.5" y="21.3" class="st2" width="1.8" height="2.5"/>
		</g>
		<g>
			<rect x="19" y="21.3" class="st2" width="1.8" height="2.5"/>
		</g>
		<g>
			<rect x="22.5" y="21.3" class="st2" width="1.8" height="2.5"/>
		</g>
		<g>
			<rect x="26" y="21.3" class="st2" width="1.8" height="2.5"/>
		</g>
		<g>
			<rect x="29.4" y="21.3" class="st2" width="1.8" height="2.5"/>
		</g>
		<g>
			<rect x="32.9" y="21.3" class="st2" width="1.8" height="2.5"/>
		</g>
	</g>
	<g>
		<rect x="11" y="8.7" class="st1" width="28.4" height="3.8"/>
		<path class="st2" d="M40.2,13.5H10V7.8h30.2V13.5z M11.9,11.7h26.5v-2H11.9V11.7z"/>
	</g>
	<rect x="17" y="35.1" class="st3" width="16.2" height="5.7"/>
	<g>
		<g>
			<circle class="st1" cx="25.1" cy="10.2" r="4.7"/>
			<path class="st2" d="M25.1,15.8c-3.1,0-5.6-2.5-5.6-5.6c0-3.1,2.5-5.6,5.6-5.6s5.6,2.5,5.6,5.6C30.7,13.3,28.2,15.8,25.1,15.8z
				 M25.1,6.5c-2.1,0-3.8,1.7-3.8,3.8c0,2.1,1.7,3.8,3.8,3.8c2.1,0,3.8-1.7,3.8-3.8C28.9,8.1,27.2,6.5,25.1,6.5z"/>
		</g>
		<g>
			<g>
				<rect x="24.2" y="7.8" class="st2" width="1.8" height="4.8"/>
			</g>
			<g>
				<rect x="22.7" y="9.3" class="st2" width="4.8" height="1.8"/>
			</g>
		</g>
	</g>
</g>
</svg>
